<svg width="24" height="18" viewBox="0 0 24 18" fill="none" xmlns="http://www.w3.org/2000/svg">
<path d="M5.45455 17.4545C4.54545 17.4545 3.77273 17.1364 3.13636 16.5C2.5 15.8636 2.18182 15.0909 2.18182 14.1818H0V2.18182C0 1.58182 0.213818 1.068 0.641455 0.640365C1.06909 0.212729 1.58255 -0.000725421 2.18182 1.85214e-06H17.4545V4.36364H20.7273L24 8.72727V14.1818H21.8182C21.8182 15.0909 21.5 15.8636 20.8636 16.5C20.2273 17.1364 19.4545 17.4545 18.5455 17.4545C17.6364 17.4545 16.8636 17.1364 16.2273 16.5C15.5909 15.8636 15.2727 15.0909 15.2727 14.1818H8.72727C8.72727 15.0909 8.40909 15.8636 7.77273 16.5C7.13636 17.1364 6.36364 17.4545 5.45455 17.4545ZM5.45455 15.2727C5.76364 15.2727 6.02291 15.168 6.23236 14.9585C6.44182 14.7491 6.54618 14.4902 6.54545 14.1818C6.54545 13.8727 6.44073 13.6135 6.23127 13.404C6.02182 13.1945 5.76291 13.0902 5.45455 13.0909C5.14545 13.0909 4.88618 13.1956 4.67673 13.4051C4.46727 13.6145 4.36291 13.8735 4.36364 14.1818C4.36364 14.4909 4.46836 14.7502 4.67782 14.9596C4.88727 15.1691 5.14618 15.2735 5.45455 15.2727ZM18.5455 15.2727C18.8545 15.2727 19.1138 15.168 19.3233 14.9585C19.5327 14.7491 19.6371 14.4902 19.6364 14.1818C19.6364 13.8727 19.5316 13.6135 19.3222 13.404C19.1127 13.1945 18.8538 13.0902 18.5455 13.0909C18.2364 13.0909 17.9771 13.1956 17.7676 13.4051C17.5582 13.6145 17.4538 13.8735 17.4545 14.1818C17.4545 14.4909 17.5593 14.7502 17.7687 14.9596C17.9782 15.1691 18.2371 15.2735 18.5455 15.2727ZM17.4545 9.81818H22.0909L19.6364 6.54546H17.4545V9.81818Z" fill="#F2A6DF"/>
</svg>
