<svg width="24" height="24" viewBox="0 0 24 24" fill="none" xmlns="http://www.w3.org/2000/svg">
<path fill-rule="evenodd" clip-rule="evenodd" d="M12 24C18.6276 24 24 18.6276 24 12C24 5.3724 18.6276 0 12 0C5.3724 0 0 5.3724 0 12C0 18.6276 5.3724 24 12 24ZM7.6764 16.2636C7.74687 16.1686 7.83538 16.0884 7.93686 16.0276C8.03835 15.9668 8.15082 15.9267 8.26784 15.9094C8.38487 15.8921 8.50415 15.8981 8.61887 15.9269C8.73358 15.9558 8.84148 16.007 8.9364 16.0776C9.81 16.7256 10.8648 17.1 12 17.1C13.1352 17.1 14.19 16.7244 15.0636 16.0776C15.1582 16.004 15.2666 15.95 15.3824 15.9188C15.4982 15.8876 15.619 15.8799 15.7378 15.8961C15.8566 15.9123 15.971 15.9521 16.0742 16.0131C16.1774 16.0741 16.2674 16.1551 16.3389 16.2513C16.4104 16.3476 16.4619 16.4572 16.4904 16.5736C16.519 16.6901 16.524 16.8111 16.5051 16.9295C16.4862 17.0479 16.4439 17.1613 16.3806 17.2632C16.3173 17.365 16.2343 17.4531 16.1364 17.5224C14.9421 18.4153 13.4912 18.8985 12 18.9C10.5088 18.8985 9.05793 18.4153 7.8636 17.5224C7.67187 17.3803 7.54444 17.1678 7.50934 16.9318C7.47423 16.6957 7.53433 16.4554 7.6764 16.2636ZM16.8 10.2C16.8 11.1936 16.2624 12 15.6 12C14.9376 12 14.4 11.1936 14.4 10.2C14.4 9.2064 14.9376 8.4 15.6 8.4C16.2624 8.4 16.8 9.2064 16.8 10.2ZM8.4 12C9.0624 12 9.6 11.1936 9.6 10.2C9.6 9.2064 9.0624 8.4 8.4 8.4C7.7376 8.4 7.2 9.2064 7.2 10.2C7.2 11.1936 7.7376 12 8.4 12Z" fill="#F2A6DF"/>
</svg>
