<svg width="20" height="24" viewBox="0 0 20 24" fill="none" xmlns="http://www.w3.org/2000/svg">
<path d="M7.56605 2.23767C7.66529 0.810257 9.01942 -0.293508 10.4789 0.069834L10.8773 0.170593C11.5842 0.347683 12.2116 0.866743 12.4223 1.64381C12.7582 2.88955 13.236 5.47721 12.517 8.52898C12.7418 8.49792 12.9673 8.47196 13.1933 8.45112C14.2818 8.35189 15.7412 8.3412 17.0343 8.77171C17.8251 9.03582 18.5518 9.81136 18.8663 10.7151C19.1472 11.5273 19.1105 12.4891 18.509 13.3608C18.5976 13.5425 18.6663 13.7303 18.7197 13.915C18.8373 14.3272 18.8922 14.7806 18.8922 15.2218C18.8922 15.663 18.8373 16.1164 18.7197 16.5286C18.6602 16.7347 18.5823 16.9454 18.4755 17.1454C18.7335 17.7362 18.6388 18.3957 18.4709 18.898C18.299 19.3939 18.0473 19.8585 17.7259 20.2735C17.8083 20.5055 17.8419 20.7498 17.8419 20.9833C17.8419 21.449 17.706 21.9375 17.4557 22.3757C16.9458 23.2703 15.9336 24 14.5031 24H9.15987C8.23625 24 7.52636 23.8763 6.92181 23.6672C6.40198 23.4774 5.90522 23.2295 5.44096 22.9283L5.36768 22.8825C4.59826 22.4138 3.84257 21.9528 2.21058 21.7803C1.04117 21.6551 0 20.7116 0 19.4201V13.3135C0 12.0158 1.04575 11.1273 2.07166 10.848C3.36778 10.4938 4.4746 9.64648 5.32647 8.69538C6.18139 7.73817 6.72182 6.74127 6.91265 6.19321C7.21645 5.31539 7.45614 3.8437 7.56605 2.2392V2.23767Z" fill="#F2A6DF"/>
</svg>
